# xmcd
#
# Track frame offsets:
#	150
#	15777
#	32430
#	46875
#	61887
#	75587
#	91412
#	105280
#	122380
#	138722
#	149727
#	164725
#	180555
#	194255
#
# Disc length: 2786 seconds
#
# Revision: 1
# Processed by: cddbd v1.5.2PL0 Copyright (c) Steve Scherf et al.
# Submitted via: audiograbber 1.82.02
#
DISCID=af0ae00e
DTITLE=Paul McCloud - I Hear The Words Of A Song
DYEAR=2006
DGENRE=Country
TTITLE0=Words Of A Song
TTITLE1=Croce Di Oro
TTITLE2=In The Chapel Of The Lord
TTITLE3=And I Love You So
TTITLE4=Simple Country Song
TTITLE5=The First Time I Saw Your Face
TTITLE6=Who Am I
TTITLE7=Let Me Wine You And Dine You
TTITLE8=Through A Child's Eyes
TTITLE9=Getting To School In The Fifties
TTITLE10=Home Is Where Your Heart Is
TTITLE11=Dreams Turn To Dust
TTITLE12=Salute To Ken Howard
TTITLE13=The Constipated Cat
EXTD=
EXTT0=
EXTT1=
EXTT2=
EXTT3=
EXTT4=
EXTT5=
EXTT6=
EXTT7=
EXTT8=
EXTT9=
EXTT10=
EXTT11=
EXTT12=
EXTT13=
PLAYORDER=
